<svg xmlns="http://www.w3.org/2000/svg"  xmlns:xlink="http://www.w3.org/1999/xlink"  width="36" height="37" viewBox="0 0 36 37" fill="none" id="svg-287922076_1484">
<rect x="0.846748" y="0.63807" width="30.3908" height="30.3575" rx="7.25" transform="matrix(0.990213 -0.139563 0.138784 0.990323 -0.0802668 5.07513)" stroke="#FF3950" stroke-width="1.5"></rect>
<ellipse cx="2.65757" cy="2.65479" rx="2.65757" ry="2.65479" transform="matrix(0.990213 -0.139563 0.138784 0.990323 6 9.45963)" fill="#FF3950"></ellipse>
<ellipse cx="2.65757" cy="2.65479" rx="2.65757" ry="2.65479" transform="matrix(0.990213 -0.139563 0.138784 0.990323 13.891 8.35062)" fill="#00A3FF"></ellipse>
<ellipse cx="2.65757" cy="2.65479" rx="2.65757" ry="2.65479" transform="matrix(0.990213 -0.139563 0.138784 0.990323 21.782 7.24162)" fill="#FFD600"></ellipse>
<ellipse cx="2.65757" cy="2.65479" rx="2.65757" ry="2.65479" transform="matrix(0.990213 -0.139563 0.138784 0.990323 7.10901 17.3506)" fill="#FF3950"></ellipse>
<ellipse cx="2.65757" cy="2.65479" rx="2.65757" ry="2.65479" transform="matrix(0.990213 -0.139563 0.138784 0.990323 15 16.2416)" fill="#00A3FF"></ellipse>
<ellipse cx="2.65757" cy="2.65479" rx="2.65757" ry="2.65479" transform="matrix(0.990213 -0.139563 0.138784 0.990323 22.891 15.1326)" fill="#FFD600"></ellipse>
<ellipse cx="2.65757" cy="2.65479" rx="2.65757" ry="2.65479" transform="matrix(0.990213 -0.139563 0.138784 0.990323 8.21802 25.2416)" fill="#FF3950"></ellipse>
<ellipse cx="2.65757" cy="2.65479" rx="2.65757" ry="2.65479" transform="matrix(0.990213 -0.139563 0.138784 0.990323 16.109 24.1326)" fill="#00A3FF"></ellipse>
</svg>